<svg width="2183" height="1791" viewBox="0 0 2183 1791" fill="none" xmlns="http://www.w3.org/2000/svg">
<g filter="url(#filter0_f_308_31)">
<ellipse cx="943.5" cy="662.5" rx="228.5" ry="171.5" fill="#FD93FF"/>
</g>
<g filter="url(#filter1_f_308_31)">
<ellipse cx="908.5" cy="902.5" rx="308.5" ry="288.5" fill="#50D4FF"/>
</g>
<g filter="url(#filter2_f_308_31)">
<ellipse cx="1359" cy="731.5" rx="324" ry="231.5" fill="#FD93FF"/>
</g>
<path d="M727.688 493.821C727.688 493.821 561.226 728.852 700.671 815.312C840.115 901.772 1052.33 622.02 1082.4 815.312C1112.47 1008.6 1188.29 815.312 1297.23 877.424C1406.17 939.536 966.922 1009.1 979.124 1247.11C991.325 1485.13 1409.22 1198.42 1606.19 1340.03C1803.15 1481.65 1715.56 1243.14 1566.97 1060.28C1418.37 877.424 2072.89 1029.47 2072.89 1029.47" stroke="url(#paint0_linear_308_31)"/>
<path d="M1000.58 145C1000.58 145 1073.79 331.833 964.416 463.013C855.039 594.193 1052.01 680.156 1179.25 497.299C1306.49 314.441 1297.78 829.225 1388.41 829.225C1479.05 829.225 1570.12 728.852 1567.08 549.473C1564.03 370.094 1745.74 511.709 1809.36 691.088C1872.98 870.467 2073 355.684 2073 355.684" stroke="url(#paint1_linear_308_31)"/>
<path d="M736.431 477.666C736.431 477.666 578.526 703.977 711.727 789.355C844.928 874.733 1046.9 611.618 1073.04 798.997C1096.65 989.413 1178.08 809.053 1287.87 859.82C1397.66 910.587 978.35 1000.77 994.183 1227.76C1010.02 1454.75 1412.78 1176.67 1600.48 1303.42C1788.18 1430.17 1713.07 1209.27 1574.3 1043.18C1435.53 877.102 2069 998.27 2069 998.27" stroke="url(#paint2_linear_308_31)"/>
<path d="M745.203 461.467C745.203 461.467 595.879 679.031 722.819 763.324C849.759 847.618 1041.45 601.188 1063.66 782.635C1080.79 970.167 1167.85 802.776 1278.49 842.166C1389.13 881.557 989.813 992.417 1009.29 1208.35C1028.77 1424.29 1416.35 1154.86 1594.76 1266.71C1773.18 1378.55 1710.57 1175.3 1581.65 1026.04C1452.74 876.779 2065.1 966.978 2065.1 966.978" stroke="url(#paint3_linear_308_31)"/>
<path d="M753.996 445.221C753.996 445.221 613.276 654.015 733.938 737.221C854.599 820.427 1035.99 590.728 1054.25 766.228C1064.89 950.867 1157.59 796.481 1269.08 824.463C1380.57 852.445 1001.31 984.04 1024.43 1188.89C1047.56 1393.74 1419.93 1133 1589.02 1229.89C1758.12 1326.78 1708.06 1141.23 1589.03 1008.84C1470 876.455 2061.19 935.598 2061.19 935.598" stroke="url(#paint4_linear_308_31)"/>
<path d="M762.822 428.93C762.822 428.93 630.731 628.928 745.096 711.044C859.461 793.159 1030.52 580.238 1044.82 749.774C1048.95 931.512 1147.3 790.169 1259.65 806.71C1372 823.251 1012.84 975.639 1039.63 1169.37C1066.42 1363.11 1423.52 1111.07 1583.28 1192.97C1743.04 1274.87 1705.55 1107.07 1596.43 991.601C1487.31 876.13 2057.28 904.13 2057.28 904.13" stroke="url(#paint5_linear_308_31)"/>
<path d="M771.678 412.594C771.678 412.594 648.24 603.772 756.292 684.793C864.343 765.815 1025.04 569.72 1035.37 733.275C1032.96 912.104 1137 783.839 1250.2 788.907C1363.4 793.975 1024.41 967.215 1054.87 1149.8C1085.34 1332.39 1427.13 1089.07 1577.52 1155.94C1727.91 1222.81 1703.03 1072.82 1603.86 974.31C1504.68 875.804 2053.36 872.574 2053.36 872.574" stroke="url(#paint6_linear_308_31)"/>
<path d="M780.56 396.211C780.56 396.211 665.8 578.545 767.52 658.469C869.24 738.394 1019.54 559.171 1025.89 716.729C1016.94 892.641 1126.66 777.492 1240.72 771.054C1354.79 764.617 1036.01 958.767 1070.16 1130.18C1104.31 1301.59 1430.76 1067.02 1571.75 1118.81C1712.75 1170.61 1700.52 1038.46 1611.31 956.971C1522.09 875.477 2049.43 840.929 2049.43 840.929" stroke="url(#paint7_linear_308_31)"/>
<path d="M789.471 379.783C789.471 379.783 683.413 553.247 778.783 632.072C874.153 710.897 1014.04 548.594 1016.39 700.137C1000.87 873.124 1116.3 771.127 1231.23 753.152C1346.15 735.178 1047.65 950.296 1085.5 1110.5C1123.34 1270.7 1434.39 1044.91 1565.97 1081.58C1697.54 1118.26 1698 1004.02 1618.78 939.584C1539.56 875.15 2045.49 809.196 2045.49 809.196" stroke="url(#paint8_linear_308_31)"/>
<path d="M798.418 363.31C798.418 363.31 701.086 527.88 790.09 605.602C879.093 683.324 1008.53 537.987 1006.88 683.5C984.777 853.553 1105.93 764.744 1221.71 735.2C1337.5 705.657 1059.34 941.801 1100.89 1090.76C1142.43 1239.72 1438.05 1022.73 1560.18 1044.25C1682.31 1065.76 1695.48 969.475 1626.29 922.148C1557.09 874.821 2041.56 777.376 2041.56 777.376" stroke="url(#paint9_linear_308_31)"/>
<path d="M807.394 346.79C807.394 346.79 718.811 502.442 801.43 579.058C884.049 655.674 1003 527.351 997.346 666.816C968.637 833.927 1095.52 758.343 1212.18 717.199C1328.83 676.054 1071.06 933.282 1116.32 1070.97C1161.58 1208.66 1441.72 1000.49 1554.38 1006.81C1667.04 1013.12 1692.96 934.836 1633.82 904.664C1574.67 874.492 2037.61 745.467 2037.61 745.467" stroke="url(#paint10_linear_308_31)"/>
<path d="M816.41 330.225C816.41 330.225 736.602 476.934 812.819 552.441C889.036 627.948 997.484 516.685 987.801 650.085C952.47 814.248 1085.11 751.925 1202.63 699.147C1320.16 646.369 1082.83 924.74 1131.81 1051.13C1180.8 1177.51 1445.42 978.194 1548.58 969.264C1651.74 960.335 1690.45 900.102 1641.39 887.131C1592.32 874.161 2033.68 713.469 2033.68 713.469" stroke="url(#paint11_linear_308_31)"/>
<path d="M825.465 313.615C825.465 313.615 754.455 451.356 824.253 525.751C894.05 600.146 991.961 505.99 978.243 633.309C936.271 794.514 1074.68 745.489 1193.07 681.046C1311.47 616.603 1094.64 916.175 1147.36 1031.23C1200.09 1146.28 1449.14 955.834 1542.78 931.619C1636.41 907.404 1687.95 865.272 1648.99 869.551C1610.03 873.83 2029.74 681.384 2029.74 681.384" stroke="url(#paint12_linear_308_31)"/>
<path d="M834.568 296.959C834.568 296.959 772.381 425.707 835.741 498.987C899.101 572.267 986.447 495.265 968.681 616.487C920.051 774.726 1064.24 739.035 1183.51 662.895C1302.78 586.755 1106.51 907.586 1162.98 1011.27C1219.45 1114.96 1452.9 933.412 1536.98 893.869C1621.07 854.327 1685.46 830.346 1656.63 851.922C1627.8 873.498 2025.82 649.211 2025.82 649.211" stroke="url(#paint13_linear_308_31)"/>
<path d="M843.724 280.257C843.724 280.257 790.383 399.989 847.288 472.15C904.193 544.311 980.946 484.511 959.122 599.619C903.815 754.883 1053.81 732.564 1173.95 644.694C1294.1 556.825 1118.44 898.973 1178.67 991.264C1238.89 1083.55 1456.69 910.929 1531.2 856.017C1605.71 801.105 1683 795.325 1664.33 834.245C1645.66 873.165 2021.91 616.949 2021.91 616.949" stroke="url(#paint14_linear_308_31)"/>
<path d="M852.953 263.51C852.953 263.51 808.483 374.199 858.916 445.24C909.348 516.28 975.477 473.728 949.584 582.704C887.583 734.987 1043.39 726.075 1164.42 626.444C1285.44 526.813 1130.46 890.337 1194.44 971.2C1258.43 1052.06 1460.54 888.384 1525.45 818.061C1590.35 747.737 1680.57 760.208 1672.09 816.519C1663.61 872.831 2018.05 584.6 2018.05 584.6" stroke="url(#paint15_linear_308_31)"/>
<path d="M862.283 246.717C862.283 246.717 826.708 348.34 870.65 418.256C914.592 488.172 970.07 462.916 940.096 565.744C871.382 715.036 1033.02 719.568 1154.93 608.144C1276.83 496.72 1142.58 881.677 1210.34 951.082C1278.1 1020.49 1464.48 865.778 1519.76 780.001C1575.03 694.225 1678.22 724.995 1679.96 798.745C1681.69 872.496 2014.24 552.162 2014.24 552.162" stroke="url(#paint16_linear_308_31)"/>
<path d="M871.77 229.878C871.77 229.878 845.114 322.41 882.548 391.199C919.982 459.987 964.779 452.074 930.714 548.737C855.268 695.031 1022.76 713.044 1145.55 589.794C1268.33 466.544 1154.86 872.994 1226.41 930.909C1297.96 988.824 1468.56 843.111 1514.18 741.839C1559.8 640.566 1675.99 689.686 1687.97 780.923C1699.95 872.16 2010.56 519.636 2010.56 519.636" stroke="url(#paint17_linear_308_31)"/>
<path d="M881.536 212.994C881.536 212.994 863.823 296.411 894.732 364.069C925.64 431.727 959.727 441.202 921.56 531.685C839.364 674.972 1012.72 706.502 1136.39 571.395C1260.06 436.287 1167.43 864.287 1242.78 910.682C1318.13 957.076 1472.91 820.382 1508.85 703.572C1544.79 586.763 1674.01 654.282 1696.26 763.053C1718.51 871.823 2007.12 487.022 2007.12 487.022" stroke="url(#paint18_linear_308_31)"/>
<path d="M893.273 196.064C893.273 196.064 884.528 270.34 908.893 336.865C933.259 403.389 956.607 430.301 914.326 514.586C825.362 654.859 1004.6 699.942 1129.16 552.945C1253.72 405.948 1181.98 855.557 1261.14 890.399C1340.29 925.242 1479.21 797.592 1505.44 665.202C1531.67 532.813 1673.96 618.782 1706.52 745.134C1739.07 871.486 2005.62 454.319 2005.62 454.319" stroke="url(#paint19_linear_308_31)"/>
<path d="M928.904 179.088C928.904 179.088 929.15 244.2 946.955 309.588C964.759 374.976 977.339 419.371 930.934 497.441C835.184 634.691 1020.31 693.364 1145.77 534.446C1271.22 375.528 1220.43 846.803 1303.4 870.063C1386.38 893.322 1509.39 774.74 1525.89 626.729C1542.39 478.719 1697.78 583.187 1740.66 727.167C1783.54 871.147 2027.98 421.529 2027.98 421.529" stroke="url(#paint20_linear_308_31)"/>
<path d="M964.677 162.067C964.677 162.067 973.939 217.989 985.165 282.238C996.391 346.486 998.175 408.412 947.633 480.25C845.079 614.47 1036.12 686.769 1162.46 515.897C1288.81 345.026 1259.03 838.026 1345.83 849.671C1432.63 861.317 1539.7 751.827 1546.44 588.153C1553.17 424.479 1721.71 547.496 1774.95 709.152C1828.18 870.808 2050.44 388.651 2050.44 388.651" stroke="url(#paint21_linear_308_31)"/>
<defs>
<filter id="filter0_f_308_31" x="315" y="91" width="1257" height="1143" filterUnits="userSpaceOnUse" color-interpolation-filters="sRGB">
<feFlood flood-opacity="0" result="BackgroundImageFix"/>
<feBlend mode="normal" in="SourceGraphic" in2="BackgroundImageFix" result="shape"/>
<feGaussianBlur stdDeviation="200" result="effect1_foregroundBlur_308_31"/>
</filter>
<filter id="filter1_f_308_31" x="0" y="14" width="1817" height="1777" filterUnits="userSpaceOnUse" color-interpolation-filters="sRGB">
<feFlood flood-opacity="0" result="BackgroundImageFix"/>
<feBlend mode="normal" in="SourceGraphic" in2="BackgroundImageFix" result="shape"/>
<feGaussianBlur stdDeviation="300" result="effect1_foregroundBlur_308_31"/>
</filter>
<filter id="filter2_f_308_31" x="535" y="0" width="1648" height="1463" filterUnits="userSpaceOnUse" color-interpolation-filters="sRGB">
<feFlood flood-opacity="0" result="BackgroundImageFix"/>
<feBlend mode="normal" in="SourceGraphic" in2="BackgroundImageFix" result="shape"/>
<feGaussianBlur stdDeviation="250" result="effect1_foregroundBlur_308_31"/>
</filter>
<linearGradient id="paint0_linear_308_31" x1="1358.95" y1="493.821" x2="1358.95" y2="1383" gradientUnits="userSpaceOnUse">
<stop offset="0.544" stop-color="#FEDEFF" stop-opacity="0.5"/>
<stop offset="1" stop-color="#59D6FF" stop-opacity="0.05"/>
</linearGradient>
<linearGradient id="paint1_linear_308_31" x1="1502.77" y1="145" x2="1502.77" y2="829.225" gradientUnits="userSpaceOnUse">
<stop offset="0.544" stop-color="#FEDEFF" stop-opacity="0.5"/>
<stop offset="1" stop-color="#59D6FF" stop-opacity="0.05"/>
</linearGradient>
<linearGradient id="paint2_linear_308_31" x1="1363.66" y1="477.666" x2="1363.66" y2="1341.01" gradientUnits="userSpaceOnUse">
<stop offset="0.544" stop-color="#FEDEFF" stop-opacity="0.5"/>
<stop offset="1" stop-color="#59D6FF" stop-opacity="0.05"/>
</linearGradient>
<linearGradient id="paint3_linear_308_31" x1="1368.39" y1="461.467" x2="1368.39" y2="1298.95" gradientUnits="userSpaceOnUse">
<stop offset="0.544" stop-color="#FEDEFF" stop-opacity="0.5"/>
<stop offset="1" stop-color="#59D6FF" stop-opacity="0.05"/>
</linearGradient>
<linearGradient id="paint4_linear_308_31" x1="1373.13" y1="445.221" x2="1373.13" y2="1269.77" gradientUnits="userSpaceOnUse">
<stop offset="0.544" stop-color="#FEDEFF" stop-opacity="0.5"/>
<stop offset="1" stop-color="#59D6FF" stop-opacity="0.05"/>
</linearGradient>
<linearGradient id="paint5_linear_308_31" x1="1377.88" y1="428.93" x2="1377.88" y2="1244.47" gradientUnits="userSpaceOnUse">
<stop offset="0.544" stop-color="#FEDEFF" stop-opacity="0.5"/>
<stop offset="1" stop-color="#59D6FF" stop-opacity="0.05"/>
</linearGradient>
<linearGradient id="paint6_linear_308_31" x1="1382.66" y1="412.594" x2="1382.66" y2="1219.17" gradientUnits="userSpaceOnUse">
<stop offset="0.544" stop-color="#FEDEFF" stop-opacity="0.5"/>
<stop offset="1" stop-color="#59D6FF" stop-opacity="0.05"/>
</linearGradient>
<linearGradient id="paint7_linear_308_31" x1="1387.44" y1="396.211" x2="1387.44" y2="1193.88" gradientUnits="userSpaceOnUse">
<stop offset="0.544" stop-color="#FEDEFF" stop-opacity="0.5"/>
<stop offset="1" stop-color="#59D6FF" stop-opacity="0.05"/>
</linearGradient>
<linearGradient id="paint8_linear_308_31" x1="1392.25" y1="379.783" x2="1392.25" y2="1168.61" gradientUnits="userSpaceOnUse">
<stop offset="0.544" stop-color="#FEDEFF" stop-opacity="0.5"/>
<stop offset="1" stop-color="#59D6FF" stop-opacity="0.05"/>
</linearGradient>
<linearGradient id="paint9_linear_308_31" x1="1397.07" y1="363.31" x2="1397.07" y2="1143.36" gradientUnits="userSpaceOnUse">
<stop offset="0.544" stop-color="#FEDEFF" stop-opacity="0.5"/>
<stop offset="1" stop-color="#59D6FF" stop-opacity="0.05"/>
</linearGradient>
<linearGradient id="paint10_linear_308_31" x1="1401.9" y1="346.79" x2="1401.9" y2="1118.15" gradientUnits="userSpaceOnUse">
<stop offset="0.544" stop-color="#FEDEFF" stop-opacity="0.5"/>
<stop offset="1" stop-color="#59D6FF" stop-opacity="0.05"/>
</linearGradient>
<linearGradient id="paint11_linear_308_31" x1="1406.76" y1="330.225" x2="1406.76" y2="1092.98" gradientUnits="userSpaceOnUse">
<stop offset="0.544" stop-color="#FEDEFF" stop-opacity="0.5"/>
<stop offset="1" stop-color="#59D6FF" stop-opacity="0.05"/>
</linearGradient>
<linearGradient id="paint12_linear_308_31" x1="1411.64" y1="313.615" x2="1411.64" y2="1067.87" gradientUnits="userSpaceOnUse">
<stop offset="0.544" stop-color="#FEDEFF" stop-opacity="0.5"/>
<stop offset="1" stop-color="#59D6FF" stop-opacity="0.05"/>
</linearGradient>
<linearGradient id="paint13_linear_308_31" x1="1416.55" y1="296.959" x2="1416.55" y2="1042.84" gradientUnits="userSpaceOnUse">
<stop offset="0.544" stop-color="#FEDEFF" stop-opacity="0.5"/>
<stop offset="1" stop-color="#59D6FF" stop-opacity="0.05"/>
</linearGradient>
<linearGradient id="paint14_linear_308_31" x1="1421.48" y1="280.257" x2="1421.48" y2="1017.92" gradientUnits="userSpaceOnUse">
<stop offset="0.544" stop-color="#FEDEFF" stop-opacity="0.5"/>
<stop offset="1" stop-color="#59D6FF" stop-opacity="0.05"/>
</linearGradient>
<linearGradient id="paint15_linear_308_31" x1="1426.44" y1="263.51" x2="1426.44" y2="993.126" gradientUnits="userSpaceOnUse">
<stop offset="0.544" stop-color="#FEDEFF" stop-opacity="0.5"/>
<stop offset="1" stop-color="#59D6FF" stop-opacity="0.05"/>
</linearGradient>
<linearGradient id="paint16_linear_308_31" x1="1431.47" y1="246.717" x2="1431.47" y2="968.5" gradientUnits="userSpaceOnUse">
<stop offset="0.544" stop-color="#FEDEFF" stop-opacity="0.5"/>
<stop offset="1" stop-color="#59D6FF" stop-opacity="0.05"/>
</linearGradient>
<linearGradient id="paint17_linear_308_31" x1="1436.57" y1="229.878" x2="1436.57" y2="944.09" gradientUnits="userSpaceOnUse">
<stop offset="0.544" stop-color="#FEDEFF" stop-opacity="0.5"/>
<stop offset="1" stop-color="#59D6FF" stop-opacity="0.05"/>
</linearGradient>
<linearGradient id="paint18_linear_308_31" x1="1441.8" y1="212.994" x2="1441.8" y2="919.963" gradientUnits="userSpaceOnUse">
<stop offset="0.544" stop-color="#FEDEFF" stop-opacity="0.5"/>
<stop offset="1" stop-color="#59D6FF" stop-opacity="0.05"/>
</linearGradient>
<linearGradient id="paint19_linear_308_31" x1="1448.03" y1="196.064" x2="1448.03" y2="896.214" gradientUnits="userSpaceOnUse">
<stop offset="0.544" stop-color="#FEDEFF" stop-opacity="0.5"/>
<stop offset="1" stop-color="#59D6FF" stop-opacity="0.05"/>
</linearGradient>
<linearGradient id="paint20_linear_308_31" x1="1466.2" y1="179.088" x2="1466.2" y2="872.989" gradientUnits="userSpaceOnUse">
<stop offset="0.544" stop-color="#FEDEFF" stop-opacity="0.5"/>
<stop offset="1" stop-color="#59D6FF" stop-opacity="0.05"/>
</linearGradient>
<linearGradient id="paint21_linear_308_31" x1="1484.45" y1="162.067" x2="1484.45" y2="850.519" gradientUnits="userSpaceOnUse">
<stop offset="0.544" stop-color="#FEDEFF" stop-opacity="0.5"/>
<stop offset="1" stop-color="#59D6FF" stop-opacity="0.05"/>
</linearGradient>
</defs>
</svg>
