<!-- icon666.com - MILLIONS vector ICONS FREE --><svg id="quotes" viewBox="0 0 512 512" xmlns="http://www.w3.org/2000/svg"><path d="m221 91h-130c-11.028 0-20 8.972-20 20v290c0 11.028 8.972 20 20 20h40c14.185 0 19.635-11.178 19.982-19.185 0 0 90.018-290.313 90.018-290.815 0-11.028-8.972-20-20-20zm-79.775 308.518c-.149.48-.225.979-.225 1.482 0 .025-.079 2.728-1.347 5.264-1.616 3.231-4.365 4.736-8.653 4.736h-40c-5.514 0-10-4.486-10-10v-290c0-5.514 4.486-10 10-10h130c5.284 0 9.624 4.12 9.977 9.316zm279.775-308.518h-130c-11.028 0-20 8.972-20 20v290c0 11.028 8.972 20 20 20h40c14.185 0 19.635-11.178 19.982-19.185 0 0 90.018-290.313 90.018-290.815 0-11.028-8.971-20-20-20zm-79.775 308.518c-.148.48-.225.979-.225 1.482 0 .025-.079 2.728-1.347 5.264-1.616 3.231-4.365 4.736-8.653 4.736h-40c-5.514 0-10-4.486-10-10v-290c0-5.514 4.486-10 10-10h130c5.284 0 9.624 4.12 9.977 9.316z" fill="rgb(0,0,0)" style="fill: rgb(67, 67, 67);"></path></svg>