<svg width="790" height="1022" viewBox="0 0 790 1022" fill="none" xmlns="http://www.w3.org/2000/svg">
<path d="M83.688 131.821C83.688 131.821 -82.7737 366.852 56.6707 453.312C196.115 539.772 408.332 260.02 438.4 453.312C468.467 646.604 544.29 453.312 653.231 515.424C762.172 577.536 322.922 647.101 335.124 885.114C347.325 1123.13 765.223 836.418 962.187 978.034C1159.15 1119.65 1071.56 881.139 922.969 698.281C774.373 515.424 1428.89 667.474 1428.89 667.474" stroke="url(#paint0_linear_76_4305)"/>
<path d="M356.586 -217C356.586 -217 429.795 -30.1673 320.418 101.013C211.041 232.193 408.009 318.156 535.249 135.299C662.49 -47.5586 653.78 467.225 744.416 467.225C835.052 467.225 926.127 366.852 923.079 187.473C920.031 8.09364 1101.74 149.709 1165.36 329.088C1228.98 508.467 1429 -6.31632 1429 -6.31632" stroke="url(#paint1_linear_76_4305)"/>
<path d="M92.4314 115.666C92.4314 115.666 -65.4737 341.977 67.7272 427.355C200.928 512.733 402.899 249.618 429.041 436.997C452.651 627.413 534.084 447.053 643.872 497.82C753.661 548.587 334.35 638.771 350.183 865.761C366.017 1092.75 768.779 814.672 956.481 941.422C1144.18 1068.17 1069.07 847.266 930.299 681.184C791.532 515.102 1425 636.27 1425 636.27" stroke="url(#paint2_linear_76_4305)"/>
<path d="M101.201 99.4666C101.201 99.4666 -48.1232 317.031 78.8168 401.324C205.757 485.618 397.451 239.188 419.658 420.635C436.791 608.167 523.851 440.776 634.489 480.166C745.127 519.557 345.811 630.417 365.288 846.354C384.764 1062.29 772.348 792.865 950.761 904.707C1129.17 1016.55 1066.56 813.297 937.653 664.038C808.74 514.779 1421.1 604.978 1421.1 604.978" stroke="url(#paint3_linear_76_4305)"/>
<path d="M109.998 83.2212C109.998 83.2212 -30.7217 292.015 89.9396 375.221C210.601 458.427 391.991 228.728 410.25 404.228C420.889 588.867 513.591 434.481 625.081 462.463C736.572 490.445 357.307 622.04 380.436 826.892C403.566 1031.74 775.929 770.996 945.027 867.889C1114.13 964.781 1064.06 779.233 945.029 646.844C826 514.455 1417.19 573.598 1417.19 573.598" stroke="url(#paint4_linear_76_4305)"/>
<path d="M118.824 66.9302C118.824 66.9302 -13.2667 266.928 101.098 349.044C215.463 431.159 386.52 218.238 400.821 387.774C404.947 569.512 503.307 428.169 615.652 444.71C727.997 461.251 368.84 613.639 395.632 807.375C422.425 1001.11 779.524 749.066 939.281 830.967C1099.04 912.868 1061.55 745.072 952.43 629.601C843.312 514.13 1413.28 542.13 1413.28 542.13" stroke="url(#paint5_linear_76_4305)"/>
<path d="M127.678 50.5935C127.678 50.5935 4.24036 241.772 112.292 322.793C220.343 403.815 381.037 207.72 391.368 371.275C388.964 550.104 492.997 421.839 606.199 426.907C719.401 431.975 380.408 605.215 410.874 787.804C441.34 970.392 783.133 727.074 933.522 793.942C1083.91 860.81 1059.03 710.817 959.855 612.31C860.676 513.804 1409.36 510.574 1409.36 510.574" stroke="url(#paint6_linear_76_4305)"/>
<path d="M136.558 34.2109C136.558 34.2109 21.7985 216.544 123.518 296.469C225.238 376.394 375.54 197.171 381.891 354.729C372.938 530.641 482.661 415.492 596.722 409.054C710.784 402.617 392.011 596.767 426.161 768.177C460.31 939.588 786.754 705.021 927.75 756.813C1068.75 808.605 1056.52 676.465 967.303 594.971C878.091 513.477 1405.43 478.929 1405.43 478.929" stroke="url(#paint7_linear_76_4305)"/>
<path d="M145.471 17.7831C145.471 17.7831 39.4126 191.247 134.783 270.072C230.153 348.897 370.036 186.594 372.395 338.137C356.875 511.124 472.303 409.126 587.226 391.152C702.149 373.178 403.653 588.296 441.497 748.497C479.34 908.698 790.392 682.906 921.968 719.581C1053.54 756.256 1054 642.018 974.779 577.584C895.561 513.15 1401.49 447.196 1401.49 447.196" stroke="url(#paint8_linear_76_4305)"/>
<path d="M154.416 1.30957C154.416 1.30957 57.0841 165.88 146.088 243.602C235.091 321.324 364.524 175.987 362.88 321.5C340.775 491.553 461.924 402.744 577.712 373.2C693.5 343.657 415.336 579.801 456.884 728.761C498.431 877.722 794.048 660.73 916.179 682.246C1038.31 703.761 1051.48 607.475 982.284 560.148C913.089 512.821 1397.56 415.376 1397.56 415.376" stroke="url(#paint9_linear_76_4305)"/>
<path d="M163.395 -15.2097C163.395 -15.2097 74.813 140.442 157.432 217.058C240.051 293.674 359.006 165.351 353.348 304.816C324.639 471.927 451.526 396.343 568.18 355.199C684.834 314.054 427.06 571.282 472.322 708.971C517.584 846.66 797.724 638.493 910.382 644.807C1023.04 651.12 1048.96 572.836 989.819 542.664C930.673 512.492 1393.62 383.467 1393.62 383.467" stroke="url(#paint10_linear_76_4305)"/>
<path d="M172.41 -31.7747C172.41 -31.7747 92.6021 114.934 168.819 190.441C245.036 265.948 353.484 154.685 343.801 288.085C308.47 452.248 441.109 389.925 558.633 337.147C676.156 284.369 438.827 562.74 487.814 689.126C536.801 815.512 801.42 616.194 904.58 607.264C1007.74 598.335 1046.45 538.102 997.385 525.131C948.317 512.161 1389.68 351.469 1389.68 351.469" stroke="url(#paint11_linear_76_4305)"/>
<path d="M181.465 -48.385C181.465 -48.385 110.455 89.356 180.253 163.751C250.05 238.146 347.961 143.99 334.243 271.309C292.271 432.514 430.68 383.489 549.074 319.046C667.469 254.603 450.642 554.175 503.364 669.227C556.086 784.279 805.142 593.834 898.778 569.619C992.413 545.404 1043.95 503.272 1004.99 507.551C966.025 511.83 1385.74 319.384 1385.74 319.384" stroke="url(#paint12_linear_76_4305)"/>
<path d="M190.568 -65.0413C190.568 -65.0413 128.381 63.7073 191.741 136.987C255.101 210.266 342.447 133.265 324.681 254.487C276.051 412.726 420.244 377.035 539.513 300.895C658.781 224.755 462.513 545.585 518.98 649.272C575.447 752.959 808.897 571.412 892.982 531.869C977.067 492.327 1041.46 468.346 1012.63 489.922C983.805 511.498 1381.82 287.211 1381.82 287.211" stroke="url(#paint13_linear_76_4305)"/>
<path d="M199.724 -81.743C199.724 -81.743 146.383 37.9885 203.288 110.15C260.193 182.311 336.946 122.511 315.122 237.619C259.815 392.883 409.808 370.564 529.953 282.694C650.098 194.825 474.444 536.973 534.667 629.264C594.889 721.554 812.691 548.929 887.199 494.017C961.708 439.105 1039 433.325 1020.33 472.245C1001.66 511.165 1377.91 254.949 1377.91 254.949" stroke="url(#paint14_linear_76_4305)"/>
<path d="M208.955 -98.4905C208.955 -98.4905 164.485 12.1994 214.918 83.2395C265.35 154.28 331.479 111.728 305.586 220.704C243.585 372.987 399.394 364.075 520.417 264.444C641.441 164.813 486.458 528.337 550.446 609.2C614.435 690.064 816.545 526.384 881.45 456.061C946.356 385.737 1036.58 398.207 1028.1 454.519C1019.62 510.831 1374.05 222.6 1374.05 222.6" stroke="url(#paint15_linear_76_4305)"/>
<path d="M218.283 -115.283C218.283 -115.283 182.708 -13.6599 226.65 56.2559C270.592 126.172 326.07 100.916 296.096 203.744C227.382 353.036 389.023 357.568 510.928 246.144C632.832 134.72 498.576 519.677 566.341 589.082C634.105 658.487 820.482 503.778 875.758 418.001C931.034 332.225 1034.22 362.995 1035.96 436.745C1037.69 510.496 1370.24 190.162 1370.24 190.162" stroke="url(#paint16_linear_76_4305)"/>
<path d="M227.768 -132.122C227.768 -132.122 201.112 -39.5895 238.546 29.1989C275.981 97.9873 320.777 90.0737 286.712 186.737C211.266 333.031 378.756 351.044 501.544 227.794C624.331 104.544 510.859 510.994 582.41 568.909C653.96 626.825 824.56 481.111 870.181 379.839C915.802 278.566 1031.99 327.686 1043.97 418.923C1055.95 510.16 1366.56 157.636 1366.56 157.636" stroke="url(#paint17_linear_76_4305)"/>
<path d="M237.538 -149.006C237.538 -149.006 219.825 -65.5894 250.734 2.0686C281.642 69.7266 315.729 79.2023 277.562 169.685C195.366 312.972 368.72 344.502 492.393 209.395C616.067 74.2874 523.434 502.287 598.781 548.682C674.129 595.076 828.909 458.382 864.849 341.572C900.788 224.763 1030.01 292.282 1052.26 401.053C1074.51 509.823 1363.13 125.022 1363.13 125.022" stroke="url(#paint18_linear_76_4305)"/>
<path d="M249.273 -165.937C249.273 -165.937 240.528 -91.6598 264.893 -25.1353C289.259 41.3892 312.607 68.3013 270.326 152.586C181.362 292.859 360.595 337.942 485.157 190.945C609.719 43.9484 537.982 493.557 617.136 528.399C696.29 563.242 835.208 435.592 861.44 303.202C887.672 170.813 1029.96 256.782 1062.52 383.134C1095.07 509.486 1361.62 92.3193 1361.62 92.3193" stroke="url(#paint19_linear_76_4305)"/>
<path d="M284.904 -182.912C284.904 -182.912 285.15 -117.8 302.955 -52.4122C320.759 12.9758 333.339 57.3713 286.934 135.441C191.184 272.691 376.313 331.364 501.765 172.446C627.217 13.5279 576.433 484.803 659.405 508.063C742.376 531.322 865.389 412.74 881.887 264.729C898.385 116.719 1053.78 221.187 1096.66 365.167C1139.54 509.147 1383.98 59.5289 1383.98 59.5289" stroke="url(#paint20_linear_76_4305)"/>
<path d="M320.675 -199.933C320.675 -199.933 329.937 -144.011 341.163 -79.7624C352.389 -15.514 354.173 46.4119 303.631 118.25C201.077 252.47 392.118 324.769 518.463 153.897C644.808 -16.9744 615.033 476.026 701.831 487.671C788.63 499.317 895.695 389.827 902.433 226.153C909.172 62.4791 1077.71 185.496 1130.94 347.152C1184.18 508.808 1406.44 26.6505 1406.44 26.6505" stroke="url(#paint21_linear_76_4305)"/>
<defs>
<linearGradient id="paint0_linear_76_4305" x1="714.945" y1="131.821" x2="714.945" y2="1021" gradientUnits="userSpaceOnUse">
<stop offset="0.544" stop-color="#FEDEFF" stop-opacity="0.5"/>
<stop offset="1" stop-color="#59D6FF" stop-opacity="0.05"/>
</linearGradient>
<linearGradient id="paint1_linear_76_4305" x1="858.767" y1="-217" x2="858.767" y2="467.225" gradientUnits="userSpaceOnUse">
<stop offset="0.544" stop-color="#FEDEFF" stop-opacity="0.5"/>
<stop offset="1" stop-color="#59D6FF" stop-opacity="0.05"/>
</linearGradient>
<linearGradient id="paint2_linear_76_4305" x1="719.658" y1="115.666" x2="719.658" y2="979.013" gradientUnits="userSpaceOnUse">
<stop offset="0.544" stop-color="#FEDEFF" stop-opacity="0.5"/>
<stop offset="1" stop-color="#59D6FF" stop-opacity="0.05"/>
</linearGradient>
<linearGradient id="paint3_linear_76_4305" x1="724.386" y1="99.4666" x2="724.386" y2="936.955" gradientUnits="userSpaceOnUse">
<stop offset="0.544" stop-color="#FEDEFF" stop-opacity="0.5"/>
<stop offset="1" stop-color="#59D6FF" stop-opacity="0.05"/>
</linearGradient>
<linearGradient id="paint4_linear_76_4305" x1="729.127" y1="83.2212" x2="729.127" y2="907.775" gradientUnits="userSpaceOnUse">
<stop offset="0.544" stop-color="#FEDEFF" stop-opacity="0.5"/>
<stop offset="1" stop-color="#59D6FF" stop-opacity="0.05"/>
</linearGradient>
<linearGradient id="paint5_linear_76_4305" x1="733.885" y1="66.9302" x2="733.885" y2="882.473" gradientUnits="userSpaceOnUse">
<stop offset="0.544" stop-color="#FEDEFF" stop-opacity="0.5"/>
<stop offset="1" stop-color="#59D6FF" stop-opacity="0.05"/>
</linearGradient>
<linearGradient id="paint6_linear_76_4305" x1="738.657" y1="50.5935" x2="738.657" y2="857.174" gradientUnits="userSpaceOnUse">
<stop offset="0.544" stop-color="#FEDEFF" stop-opacity="0.5"/>
<stop offset="1" stop-color="#59D6FF" stop-opacity="0.05"/>
</linearGradient>
<linearGradient id="paint7_linear_76_4305" x1="743.443" y1="34.2109" x2="743.443" y2="831.884" gradientUnits="userSpaceOnUse">
<stop offset="0.544" stop-color="#FEDEFF" stop-opacity="0.5"/>
<stop offset="1" stop-color="#59D6FF" stop-opacity="0.05"/>
</linearGradient>
<linearGradient id="paint8_linear_76_4305" x1="748.246" y1="17.7831" x2="748.246" y2="806.61" gradientUnits="userSpaceOnUse">
<stop offset="0.544" stop-color="#FEDEFF" stop-opacity="0.5"/>
<stop offset="1" stop-color="#59D6FF" stop-opacity="0.05"/>
</linearGradient>
<linearGradient id="paint9_linear_76_4305" x1="753.068" y1="1.30957" x2="753.068" y2="781.36" gradientUnits="userSpaceOnUse">
<stop offset="0.544" stop-color="#FEDEFF" stop-opacity="0.5"/>
<stop offset="1" stop-color="#59D6FF" stop-opacity="0.05"/>
</linearGradient>
<linearGradient id="paint10_linear_76_4305" x1="757.906" y1="-15.2097" x2="757.906" y2="756.145" gradientUnits="userSpaceOnUse">
<stop offset="0.544" stop-color="#FEDEFF" stop-opacity="0.5"/>
<stop offset="1" stop-color="#59D6FF" stop-opacity="0.05"/>
</linearGradient>
<linearGradient id="paint11_linear_76_4305" x1="762.764" y1="-31.7747" x2="762.764" y2="730.977" gradientUnits="userSpaceOnUse">
<stop offset="0.544" stop-color="#FEDEFF" stop-opacity="0.5"/>
<stop offset="1" stop-color="#59D6FF" stop-opacity="0.05"/>
</linearGradient>
<linearGradient id="paint12_linear_76_4305" x1="767.642" y1="-48.385" x2="767.642" y2="705.871" gradientUnits="userSpaceOnUse">
<stop offset="0.544" stop-color="#FEDEFF" stop-opacity="0.5"/>
<stop offset="1" stop-color="#59D6FF" stop-opacity="0.05"/>
</linearGradient>
<linearGradient id="paint13_linear_76_4305" x1="772.546" y1="-65.0413" x2="772.546" y2="680.844" gradientUnits="userSpaceOnUse">
<stop offset="0.544" stop-color="#FEDEFF" stop-opacity="0.5"/>
<stop offset="1" stop-color="#59D6FF" stop-opacity="0.05"/>
</linearGradient>
<linearGradient id="paint14_linear_76_4305" x1="777.476" y1="-81.743" x2="777.476" y2="655.92" gradientUnits="userSpaceOnUse">
<stop offset="0.544" stop-color="#FEDEFF" stop-opacity="0.5"/>
<stop offset="1" stop-color="#59D6FF" stop-opacity="0.05"/>
</linearGradient>
<linearGradient id="paint15_linear_76_4305" x1="782.447" y1="-98.4905" x2="782.447" y2="631.126" gradientUnits="userSpaceOnUse">
<stop offset="0.544" stop-color="#FEDEFF" stop-opacity="0.5"/>
<stop offset="1" stop-color="#59D6FF" stop-opacity="0.05"/>
</linearGradient>
<linearGradient id="paint16_linear_76_4305" x1="787.465" y1="-115.283" x2="787.465" y2="606.5" gradientUnits="userSpaceOnUse">
<stop offset="0.544" stop-color="#FEDEFF" stop-opacity="0.5"/>
<stop offset="1" stop-color="#59D6FF" stop-opacity="0.05"/>
</linearGradient>
<linearGradient id="paint17_linear_76_4305" x1="792.564" y1="-132.122" x2="792.564" y2="582.09" gradientUnits="userSpaceOnUse">
<stop offset="0.544" stop-color="#FEDEFF" stop-opacity="0.5"/>
<stop offset="1" stop-color="#59D6FF" stop-opacity="0.05"/>
</linearGradient>
<linearGradient id="paint18_linear_76_4305" x1="797.806" y1="-149.006" x2="797.806" y2="557.963" gradientUnits="userSpaceOnUse">
<stop offset="0.544" stop-color="#FEDEFF" stop-opacity="0.5"/>
<stop offset="1" stop-color="#59D6FF" stop-opacity="0.05"/>
</linearGradient>
<linearGradient id="paint19_linear_76_4305" x1="804.031" y1="-165.937" x2="804.031" y2="534.214" gradientUnits="userSpaceOnUse">
<stop offset="0.544" stop-color="#FEDEFF" stop-opacity="0.5"/>
<stop offset="1" stop-color="#59D6FF" stop-opacity="0.05"/>
</linearGradient>
<linearGradient id="paint20_linear_76_4305" x1="822.205" y1="-182.912" x2="822.205" y2="510.989" gradientUnits="userSpaceOnUse">
<stop offset="0.544" stop-color="#FEDEFF" stop-opacity="0.5"/>
<stop offset="1" stop-color="#59D6FF" stop-opacity="0.05"/>
</linearGradient>
<linearGradient id="paint21_linear_76_4305" x1="840.45" y1="-199.933" x2="840.45" y2="488.519" gradientUnits="userSpaceOnUse">
<stop offset="0.544" stop-color="#FEDEFF" stop-opacity="0.5"/>
<stop offset="1" stop-color="#59D6FF" stop-opacity="0.05"/>
</linearGradient>
</defs>
</svg>
