<svg width="188" height="62" viewBox="0 0 188 62" fill="none" xmlns="http://www.w3.org/2000/svg">
<path d="M129.825 12.25C132.008 12.25 133.917 12.6417 135.55 13.425C137.2 14.2083 138.483 15.3 139.4 16.7C140.317 18.1 140.775 19.7417 140.775 21.625C140.775 23.4917 140.317 25.1333 139.4 26.55C138.483 27.95 137.2 29.0417 135.55 29.825C133.917 30.6083 132.008 31 129.825 31H120.925V12.25H129.825ZM125.15 29.325L123 27.25H130.15C131.417 27.25 132.525 27.0167 133.475 26.55C134.442 26.0833 135.183 25.425 135.7 24.575C136.217 23.725 136.475 22.7417 136.475 21.625C136.475 20.4917 136.217 19.5083 135.7 18.675C135.183 17.825 134.442 17.1667 133.475 16.7C132.525 16.2333 131.417 16 130.15 16H123L125.15 13.925V29.325ZM161.008 20V23.25H147.583V20H161.008ZM150.433 21.625L149.183 29.575L147.333 27.475H161.783V31H144.908L146.358 21.625L144.908 12.25H161.658V15.775H147.333L149.183 13.675L150.433 21.625ZM169.724 27.05V23.6H182.724V27.05H169.724ZM179.049 12.25L187.824 31H183.299L175.624 13.975H177.024L169.349 31H164.824L173.599 12.25H179.049Z" fill="#9A9A9A"/>
<path d="M28.25 31.25V50H24.2V32.675L25.275 32.75L17.275 50H12.9L4.9 32.8L5.95 32.7V50H1.925V31.25H8.45L16 47.95H14.175L21.725 31.25H28.25ZM44.1014 50.375C41.918 50.375 40.0014 49.9667 38.3514 49.15C36.718 48.3333 35.443 47.2 34.5264 45.75C33.6097 44.2833 33.1514 42.575 33.1514 40.625C33.1514 38.675 33.6097 36.975 34.5264 35.525C35.443 34.0583 36.718 32.9167 38.3514 32.1C40.0014 31.2833 41.918 30.875 44.1014 30.875C46.2847 30.875 48.193 31.2833 49.8264 32.1C51.4764 32.9167 52.7597 34.0583 53.6764 35.525C54.593 36.975 55.0514 38.675 55.0514 40.625C55.0514 42.575 54.593 44.2833 53.6764 45.75C52.7597 47.2 51.4764 48.3333 49.8264 49.15C48.193 49.9667 46.2847 50.375 44.1014 50.375ZM44.1014 46.6C45.468 46.6 46.643 46.3583 47.6264 45.875C48.6264 45.3917 49.393 44.7 49.9264 43.8C50.4764 42.9 50.7514 41.8417 50.7514 40.625C50.7514 39.4083 50.4764 38.35 49.9264 37.45C49.393 36.55 48.6264 35.8583 47.6264 35.375C46.643 34.8917 45.468 34.65 44.1014 34.65C42.7514 34.65 41.5764 34.8917 40.5764 35.375C39.5764 35.8583 38.8014 36.55 38.2514 37.45C37.718 38.35 37.4514 39.4083 37.4514 40.625C37.4514 41.8417 37.718 42.9 38.2514 43.8C38.8014 44.7 39.5764 45.3917 40.5764 45.875C41.5764 46.3583 42.7514 46.6 44.1014 46.6ZM68.8777 31.25C71.0611 31.25 72.9694 31.6417 74.6027 32.425C76.2527 33.2083 77.5361 34.3 78.4527 35.7C79.3694 37.1 79.8277 38.7417 79.8277 40.625C79.8277 42.4917 79.3694 44.1333 78.4527 45.55C77.5361 46.95 76.2527 48.0417 74.6027 48.825C72.9694 49.6083 71.0611 50 68.8777 50H59.9777V31.25H68.8777ZM64.2027 48.325L62.0527 46.25H69.2027C70.4694 46.25 71.5777 46.0167 72.5277 45.55C73.4944 45.0833 74.2361 44.425 74.7527 43.575C75.2694 42.725 75.5277 41.7417 75.5277 40.625C75.5277 39.4917 75.2694 38.5083 74.7527 37.675C74.2361 36.825 73.4944 36.1667 72.5277 35.7C71.5777 35.2333 70.4694 35 69.2027 35H62.0527L64.2027 32.925V48.325ZM100.061 39V42.25H86.6357V39H100.061ZM89.4857 40.625L88.2357 48.575L86.3857 46.475H100.836V50H83.9607L85.4107 40.625L83.9607 31.25H100.711V34.775H86.3857L88.2357 32.675L89.4857 40.625Z" fill="#9A9A9A"/>
<path d="M112.324 12.2V47.8832L110.207 45.8168H138.784V50H107.586V12.2H112.324Z" fill="#9A9A9A"/>
</svg>
